<svg width="256" height="256" viewBox="0 0 256 256" fill="none" xmlns="http://www.w3.org/2000/svg">
  <rect width="256" height="256" rx="35" fill="#8247E5"/>
  <path d="M178 128L143 88C140 84.5 135 84.5 132 88L107 118C104 121.5 104 126.5 107 130L132 160C135 163.5 140 163.5 143 160L178 118C181 114.5 181 131.5 178 128Z" fill="white"/>
  <path d="M89 118L74 98C71 94.5 66 94.5 63 98L48 118C45 121.5 45 126.5 48 130L63 150C66 153.5 71 153.5 74 150L89 130C92 126.5 92 121.5 89 118Z" fill="white"/>
  <path d="M208 118L193 98C190 94.5 185 94.5 182 98L167 118C164 121.5 164 126.5 167 130L182 150C185 153.5 190 153.5 193 150L208 130C211 126.5 211 121.5 208 118Z" fill="white"/>
</svg>
