<svg viewBox="0 0 256 296" width="256" height="296" xmlns="http://www.w3.org/2000/svg" preserveAspectRatio="xMidYMid">
  <path fill="#61DAFB" d="M128 0C57.3 0 0 57.3 0 128s57.3 128 128 128 128-57.3 128-128S198.7 0 128 0z"/>
  <path fill="#fff" d="M128 51.9c-42.4 0-76.8 34.4-76.8 76.8s34.4 76.8 76.8 76.8 76.8-34.4 76.8-76.8-34.4-76.8-76.8-76.8zm0 126.4c-27.4 0-49.6-22.2-49.6-49.6s22.2-49.6 49.6-49.6 49.6 22.2 49.6 49.6-22.2 49.6-49.6 49.6z"/>
  <circle fill="#61DAFB" cx="128" cy="128.7" r="19.6"/>
</svg>
