<svg width="256" height="256" viewBox="0 0 256 256" fill="none" xmlns="http://www.w3.org/2000/svg">
  <rect width="256" height="256" rx="35" fill="#0F172A"/>
  <path d="M128 80C106.667 80 93.3333 90.6667 88 112C96 101.333 105.333 96.6667 116 98C122.5 98.8 127.167 103.5 132.333 108.667C140.5 116.833 150 126.333 172 126.333C193.333 126.333 206.667 115.667 212 94.3333C204 105 194.667 109.667 184 108.333C177.5 107.533 172.833 102.833 167.667 97.6667C159.5 89.5 150 80 128 80ZM84 126.333C62.6667 126.333 49.3333 137 44 158.333C52 147.667 61.3333 143 72 144.333C78.5 145.133 83.1667 149.833 88.3333 155C96.5 163.167 106 172.667 128 172.667C149.333 172.667 162.667 162 168 140.667C160 151.333 150.667 156 140 154.667C133.5 153.867 128.833 149.167 123.667 144C115.5 135.833 106 126.333 84 126.333Z" fill="#38BDF8"/>
</svg>
